<svg xmlns="http://www.w3.org/2000/svg" xml:space="preserve" viewBox="0 0 100 108.3">
  <path d="M47.7 45v-4C54.3 41 60 36 60 30.7c0-2.7-1.7-5-3-6.3h.7c1 .7 3.7 4 3.7 7.7C61.7 39 55 45 47.7 45M41 22c0-.7-.3-1.3-.7-2 0-.7.3-1.3 1.3-.7-.7.7 0 1.7 0 1.7s1.3-.7 1-1.3c1.4.3.1 3-1.6 2.3m-1.7 3.7c-.3-1-.7-2-1.3-2.7-.7-.7-1.7-1.7-3-1.7-.7 0-1.7.3-2.3.7-.3-.3-.7-1.3-.7-2s.7-1 2.3-1c3.3 0 5.7 1.7 5.7 4 0 1-.3 1.7-.7 2.7m-22 6.6c0-3.7 2.7-6.7 3.7-7.7h.7c-1 1.3-3 3.3-3 6.3 0 5.7 6 10.3 12.7 10.3v4C24 45 17.3 39 17.3 32.3m51 11.7c3.3 5.3 6 5.3 10 5.3-3.3-2.7-5.7-6-6.7-7.3l-6.3-10c-.7-3-2.3-6-4.7-8l2-1c-4 0-8-2-10.3-2-1.3 0-2.3 1-2.3 2 0 1.3 1.3 2.7 3.7 2.7.7 0 1.3 0 2-.3C57 27 58 28.7 58 31c0 4.3-5.3 7.7-10.7 7.7h-1c-.3-1-2-3-2-5 0-3.3 2.3-6.3 2.3-9.7 0-2-1-3.3-1.3-4l1.7-1.7c-.3 0-.7.3-1.3.3-2.7.1-4.7-.6-6.7-.6-1 0-1.3.3-1.3.7v.3c-.3 0-.7-.3-1.3-.3h-2c-2.3 0-3.3 1-3.3 2 0 .7.7 2 1.3 3 1-.3 2-.7 2.7-.7 1.3 0 2.3 1.3 3 2.7h-2c-2.3 0-4-1-4.3-1 0 .3.7 1.3 2 1.7 1.7.7 4.3 1 4.7 1 0 0-.3 1-1 1H37c-1.7-.4-2.3-.4-4.7-1.4 0 1 2.3 3 4.3 3.7-1.7 2.3-4 4.7-5 8h-1c-5.3 0-10.3-3.3-10.3-7.7 0-2.3 1-4 2.3-5.7.7 0 1.3.3 2 .3 2.3 0 3.7-1.3 3.7-2.7 0-1-1-2-2.3-2-2.3 0-6.3 2-10.3 2 .3.3 1 .7 2 1-2.3 2-4 5-4.7 8L6.7 42c-1 1.7-3.3 5-6.7 7.3 4 0 6.7 0 10-5.3l3.3-5 1 2L8 51c-1 1.7-3.3 5-6.7 7.3 4 0 6.7 0 10-5.3l5.3-8.7c.3.3.7 1 1.3 1.3L11 58c-1 1.7-3.3 5-6.7 7.3 4 0 6.7 0 10-5.3L22 48c.3.3 1 .7 1.7 1l-9.3 15c-1 1.7-3.3 5-6.7 7.3 4 0 6.7 0 10-5.3L27 51c.7.3 1 .3 1.7.7L18 68.7c-1 1.7-3.3 5-6.7 7.3 4 0 6.7 0 10-5.3l11.3-18.3h.4c.3 1 .7 2 .7 3C33.7 61 30 66 25.3 70h3.3c-1 2.3-3.3 5.3-4.3 7-1.3-.3-3.7-.3-5-.3s-1.7 1-1.7 1.7c0 1.3.7 2.3 1.3 3 .3-.7.7-1.7 3.7-1.7h.4c-.7 1-3.3 3-3.3 4.3 0 1 1.3 2.7 2.7 2.7v-1c0-1.3 1.3-2.7 2-4v.7c0 3 .3 4.7 2.3 4.7 1 0 1.7-.7 2-.7-1.3-1-1.3-2-1.3-4v-3H29s2.7-.3 3.3 1.3c.7-.7 2-1.7 2-2.7 0-.7-.3-1.7-1.7-1.7-.7 0-2.3.3-3.7.3.3-1 2-3.3 3.7-5.3.3.7.7 1.3 1.3 2 0-1 .7-5 2.7-7 .3 1.3.7 3 .7 6 0 7.7-2 13.3-5.7 14.3.7 1 1.7 1.7 2.7 1.7 1.3 0 2.3-1.7 3-3.3.3 1 1.7 4 2.7 4s2.3-2.7 2.7-4c.7 1.7 1.7 3.3 3 3.3 1 0 2.3-.7 2.7-1.7-4-1-5.7-6.7-5.7-14.3 0-3.3.3-4.7.7-6 1.7 2.3 2.7 6 2.7 7 .7-.7 1-1.3 1.3-2 1.7 1.7 3.3 4.3 3.7 5.3-1.3 0-3.3-.3-3.7-.3-1.3 0-1.7.7-1.7 1.7s1 2 2 2.7c.7-1.3 3.3-1.3 3.3-1.3h1.7v3c0 1.7 0 2.7-1.3 4 .3 0 1 .7 2 .7 2 0 2.3-1.3 2.3-4.7v-.7c1 1 2 2.7 2 4v1c1.7 0 2.7-1.7 2.7-2.7 0-1.7-2.7-3.7-3.3-4.3h.3c2.7 0 3.3 1 3.7 1.7.7-.7 1.3-1.7 1.3-3 0-.7 0-1.7-1.7-1.7s-3.7.3-5 .3c-1-1.7-3.3-4.7-4.3-7h3.3c-4.3-4-8.3-9-8.3-14.7 0-1 .3-1.7.7-3h.3l11.3 18.3c3.3 5.3 6 5.3 10 5.3-3.3-2.7-5.7-6-6.7-7.3l-10.7-17c.7-.3 1-.3 1.7-.7l9.3 15c3.3 5.3 6 5.3 10 5.3-3.3-2.7-5.7-5.7-6.7-7.3l-9.3-14.7c.7-.3 1-.7 1.7-1l7.7 12c3.3 5.3 6 5.3 10 5.3C72.3 63 70 60 69 58.3L61.3 46c.3-.3 1-.7 1.3-1.3l5.3 8.7c3.3 5.3 6 5.3 10 5.3-3.3-2.7-5.7-6-6.7-7.3l-6.3-10 1-2c.1-.1 2.4 4.6 2.4 4.6zm21-44H100v36H89.3V0z"/>
    <path fill="red" d="M89.3 36H100v36H89.3V36z"/>
    <path fill="#fc0" d="M89.3 72.3H100v36H89.3v-36z"/>
</svg>
